<?xml version="1.0" encoding="UTF-8" standalone="no"?>
<!DOCTYPE svg PUBLIC "-//W3C//DTD SVG 1.1//EN" "http://www.w3.org/Graphics/SVG/1.1/DTD/svg11.dtd">
<svg width="100%" height="100%" viewBox="0 0 32 32" version="1.1" xmlns="http://www.w3.org/2000/svg" xmlns:xlink="http://www.w3.org/1999/xlink" xml:space="preserve" xmlns:serif="http://www.serif.com/" style="fill-rule:evenodd;clip-rule:evenodd;stroke-linejoin:round;stroke-miterlimit:2;">
    <g id="a">
        <rect x="14.5" y="24.325" width="4" height="3.694" style="fill:white;"/>
        <path d="M22.728,21.124L23.817,23.834C23.854,23.926 23.873,24.022 23.873,24.119C23.873,24.602 23.404,25 22.835,25L10.165,25C9.595,25 9.126,24.602 9.126,24.119C9.126,24.023 9.145,23.926 9.182,23.835L10.271,21.124C9.77,21.087 9.374,20.794 9.374,20.442C9.374,20.367 9.392,20.292 9.427,20.22L11.282,16.5L11.04,16.5C10.548,16.5 10.144,16.295 10.144,16.046C10.144,15.996 10.16,15.947 10.192,15.899L13.429,11.086L13.314,11.086C13.028,11.086 12.792,10.936 12.792,10.754C12.792,10.717 12.801,10.681 12.82,10.646L16.005,4.697C16.077,4.563 16.277,4.472 16.5,4.472C16.722,4.472 16.922,4.563 16.994,4.697L20.179,10.646C20.198,10.681 20.207,10.717 20.207,10.754C20.207,10.936 19.972,11.086 19.685,11.086L19.57,11.086L22.807,15.899C22.839,15.946 22.855,15.996 22.855,16.046C22.855,16.295 22.451,16.5 21.96,16.5L21.717,16.5L23.572,20.22C23.607,20.291 23.626,20.366 23.626,20.442C23.626,20.794 23.23,21.087 22.728,21.124ZM21.399,20.626L21.96,20.626C22.451,20.626 22.855,20.407 22.855,20.141C22.855,20.087 22.839,20.034 22.807,19.983L20.302,16L21.109,16C21.518,16 21.855,15.795 21.855,15.546C21.855,15.496 21.842,15.447 21.815,15.399L19.116,10.586L19.204,10.586C19.447,10.586 19.647,10.459 19.647,10.304C19.647,10.273 19.639,10.242 19.623,10.213L16.919,5.163C16.858,5.049 16.689,4.972 16.5,4.972C16.31,4.972 16.141,5.049 16.08,5.163L13.376,10.213C13.361,10.242 13.353,10.273 13.353,10.304C13.353,10.459 13.553,10.586 13.796,10.586L13.994,10.586L11.294,15.4C11.268,15.447 11.254,15.497 11.254,15.546C11.254,15.795 11.592,16 12.001,16L12.697,16L10.192,19.984C10.16,20.034 10.144,20.087 10.144,20.141C10.144,20.407 10.548,20.626 11.04,20.626L11.6,20.626L9.707,23.634C9.673,23.689 9.655,23.746 9.655,23.803C9.655,24.089 10.091,24.325 10.62,24.325L22.38,24.325C22.909,24.325 23.344,24.089 23.344,23.803C23.344,23.745 23.326,23.688 23.292,23.634L21.399,20.626Z" style="fill:white;"/>
        <path d="M16.555,4.717L16.58,4.972L16.315,8.67L14.423,13.255L16.177,10.586L16.018,12.799L14.255,16.405L15.937,13.935L15.68,17.512L12.853,22.718L15.564,19.13L14.5,24.325L18.489,24.325L17.524,19.13L20.156,23.392L17.415,17.512L17.175,13.935L19.059,16.907L17.087,12.627L16.919,10.13L18.119,11.949L16.818,8.628L16.555,4.717Z" style="fill:white;"/>
    </g>
</svg>
