<?xml version="1.0" encoding="UTF-8" standalone="no"?>
<!DOCTYPE svg PUBLIC "-//W3C//DTD SVG 1.1//EN" "http://www.w3.org/Graphics/SVG/1.1/DTD/svg11.dtd">
<svg width="100%" height="100%" viewBox="0 0 32 32" version="1.1" xmlns="http://www.w3.org/2000/svg" xmlns:xlink="http://www.w3.org/1999/xlink" xml:space="preserve" xmlns:serif="http://www.serif.com/" style="fill-rule:evenodd;clip-rule:evenodd;stroke-linejoin:round;stroke-miterlimit:2;">
    <g id="a">
        <path d="M15.517,8.07C15.66,7.714 16.056,7.473 16.499,7.473C16.943,7.473 17.339,7.714 17.482,8.07L23.817,23.834C23.854,23.926 23.873,24.022 23.873,24.119C23.873,24.602 23.404,25 22.835,25L10.165,25C10.165,25 10.165,25 10.165,25C9.595,25 9.126,24.602 9.126,24.119C9.126,24.023 9.145,23.926 9.182,23.835L15.517,8.07Z" style="fill:white;fill-rule:nonzero;"/>
        <path d="M15.55,7.938C15.688,7.661 16.071,7.473 16.499,7.473C16.928,7.473 17.311,7.661 17.449,7.938L23.572,20.22C23.607,20.291 23.626,20.366 23.626,20.442C23.626,20.818 23.173,21.128 22.622,21.128L10.378,21.128C10.378,21.128 10.377,21.128 10.377,21.128C9.827,21.128 9.374,20.818 9.374,20.442C9.374,20.367 9.392,20.292 9.427,20.22L15.55,7.938Z" style="fill:white;fill-rule:nonzero;"/>
        <path d="M15.652,7.78C15.776,7.597 16.117,7.473 16.5,7.473C16.882,7.473 17.223,7.597 17.347,7.78L22.807,15.899C22.839,15.946 22.855,15.996 22.855,16.046C22.855,16.295 22.451,16.5 21.96,16.5L11.04,16.5C11.04,16.5 11.039,16.5 11.039,16.5C10.548,16.5 10.144,16.295 10.144,16.046C10.144,15.996 10.16,15.947 10.192,15.899L15.652,7.78Z" style="fill:white;fill-rule:nonzero;"/>
        <path d="M16.005,4.697C16.077,4.563 16.277,4.472 16.5,4.472C16.722,4.472 16.922,4.563 16.994,4.697L20.179,10.646C20.198,10.681 20.207,10.717 20.207,10.754C20.207,10.936 19.972,11.086 19.685,11.086L13.314,11.086C13.314,11.086 13.314,11.086 13.314,11.086C13.028,11.086 12.792,10.936 12.792,10.754C12.792,10.717 12.801,10.681 12.82,10.646L16.005,4.697Z" style="fill:white;fill-rule:nonzero;"/>
        <rect x="14.5" y="18.019" width="4" height="10" style="fill:white;"/>
    </g>
</svg>
